<svg xmlns="http://www.w3.org/2000/svg" width="198.042" height="178.453" viewBox="0 0 198.042 178.453">
  <g id="arbirtum_logo" data-name="arbirtum logo" transform="translate(-856.479 -718)">
    <g id="Group_1" data-name="Group 1" transform="translate(892.902 717.726)">
      <path id="Polygon_1" data-name="Polygon 1" d="M103.926,0a20,20,0,0,1,17.341,10.035l27.007,47a20,20,0,0,1,0,19.929l-27.007,47A20,20,0,0,1,103.926,134H50.074a20,20,0,0,1-17.341-10.035l-27.007-47a20,20,0,0,1,0-19.929l27.007-47A20,20,0,0,1,50.074,0Z" transform="translate(134.098 0.274) rotate(90)" fill="#1d86cc"/>
    </g>
    <g id="arbitrum" transform="translate(-1311.275 228.562)">
      <path id="Path_83" data-name="Path 83" d="M2332.2,502.9,2285.8,529.7a11.6,11.6,0,0,0-5.8,10.05l.029,53.659a11.6,11.6,0,0,0,5.794,10.035l46.454,26.854a11.6,11.6,0,0,0,11.6,0l46.4-26.792a11.6,11.6,0,0,0,5.8-10.05l-.029-53.659a11.6,11.6,0,0,0-5.794-10.034L2343.8,502.908a11.6,11.6,0,0,0-11.6,0Z" transform="translate(-66.718 -0.217)" fill="#fff"/>
      <path id="Path_84" data-name="Path 84" d="M2328.247,623.553a2.171,2.171,0,0,1,.456-.951q20.82-35.328,41.647-70.653c.193-.327.372-.663.536-.956-.122-.213-.261-.169-.379-.169-5.932.021-11.864.059-17.8.052a1.242,1.242,0,0,0-1.179.79q-6.712,11.1-13.441,22.194-14.255,23.519-28.513,47.037c-.084.139-.172.275-.247.418-.168.324-.359.375-.7.177-1.475-.871-2.966-1.714-4.533-2.615l42.3-67.842c-.091-.276-.278-.207-.422-.212-2.267-.068-4.535-.166-6.8-.186a25.133,25.133,0,0,0-9.344,1.506,13.194,13.194,0,0,0-6.586,5.347q-11.593,18.082-23.274,36.108c-.122.19-.252.376-.378.564-.446,0-.38-.368-.421-.625a7.519,7.519,0,0,1-.028-1.165c0-13.292.046-26.584-.041-39.875a5.732,5.732,0,0,1,3.282-5.536c10.221-5.827,20.376-11.774,30.564-17.66,4.547-2.627,9.108-5.229,13.622-7.911a5.153,5.153,0,0,1,5.742,0c8.3,4.871,16.674,9.629,25.017,14.431q9.439,5.435,18.887,10.851c.451.257.89.532,1.343.785a4.369,4.369,0,0,1,2.312,4.1q.018,21.688,0,43.376a2.807,2.807,0,0,1-.114,1.055c-.5.483-.681-.059-.863-.316-.75-1.055-1.423-2.166-2.12-3.258q-8.372-13.105-16.8-26.175c-1.888-2.945-3.8-5.878-5.668-8.835-.436-.69-.515-.7-.951.041q-4.228,7.154-8.451,14.311a1.454,1.454,0,0,0,.172,1.7q3.482,5.618,6.951,11.244l11.857,19.18q2.4,3.888,4.808,7.769a1.965,1.965,0,0,1,.474,1.244c-.321.638-.99.817-1.547,1.107a11.693,11.693,0,0,1-2.983,1.557c-.574-.143-.777-.661-1.049-1.085-3.671-5.726-7.295-11.481-10.942-17.221-3.751-5.9-7.484-11.822-11.251-17.716-.483-.756-.56-.761-1.014,0-3.277,5.513-6.509,11.052-9.794,16.559a1.468,1.468,0,0,0,.081,1.714c4.425,6.82,8.748,13.7,13.126,20.554,1.221,1.91,2.451,3.813,3.65,5.737.234.374.554.747.342,1.253a20.777,20.777,0,0,1-3.7,2.3q-6.134,3.569-12.274,7.128a4.056,4.056,0,0,1-4.4,0q-9.044-5.232-18.121-10.417A2.362,2.362,0,0,1,2328.247,623.553Z" transform="translate(-78.08 -11.609)" fill="#2d374b"/>
    </g>
  </g>
</svg>
